Coordinates
version=1
nRows=5
nColumns=40
inDegrees=yes

Units are S.I. units (second, meters, Newtons, ...)
If the header above contains a line with 'inDegrees', this indicates whether rotational values are in degrees (yes) or radians (no).

endheader
time	pelvis_tilt	pelvis_list	pelvis_rotation	pelvis_tx	pelvis_ty	pelvis_tz	hip_flexion_r	hip_adduction_r	hip_rotation_r	knee_angle_r	knee_angle_r_beta	ankle_angle_r	subtalar_angle_r	mtp_angle_r	hip_flexion_l	hip_adduction_l	hip_rotation_l	knee_angle_l	knee_angle_l_beta	ankle_angle_l	subtalar_angle_l	mtp_angle_l	lumbar_extension	lumbar_bending	lumbar_rotation	arm_flex_r	arm_add_r	arm_rot_r	elbow_flex_r	pro_sup_r	wrist_flex_r	wrist_dev_r	arm_flex_l	arm_add_l	arm_rot_l	elbow_flex_l	pro_sup_l	wrist_flex_l	wrist_dev_l
      1.50000000	      7.57874511	     -4.34251079	     -1.19817660	     -0.24554633	      0.99513375	     -1.00074892	     36.74872515	     -1.21435532	      0.55749176	     14.53732472	      0.25372418	    -16.20101816	      0.00000000	      0.00000000	     -4.96196048	     -0.05344293	     -4.85939070	      8.76000938	      0.15289101	     -4.91973728	      0.00000000	      0.00000000	     -8.44884034	     -0.13691959	      4.30459451	     82.15751026	     -7.84029496	     36.40221042	     26.06030047	     86.51238775	      0.00000000	      0.00000000	     85.04399375	    -16.31720120	     47.48289491	     24.88059153	     86.56829547	      0.00000000	      0.00000000
      1.50500000	      7.60657413	     -4.27325786	     -1.22515687	     -0.24559179	      0.99521690	     -1.00076072	     36.75099620	     -1.26675975	      0.58120834	     14.58753454	      0.25460051	    -16.13386841	      0.00000000	      0.00000000	     -5.06336280	      0.04096356	     -4.89953871	      8.57648069	      0.14968783	     -5.15193007	      0.00000000	      0.00000000	     -8.47606844	     -0.19494345	      4.31173481	     82.22324446	     -7.75819380	     36.47909300	     25.91236949	     86.55908440	      0.00000000	      0.00000000	     84.93423630	    -16.28505032	     46.76896692	     24.89259355	     86.63813643	      0.00000000	      0.00000000
      1.51000000	      7.59922134	     -4.31684856	     -1.18599952	     -0.24572345	      0.99523700	     -1.00077633	     36.71131902	     -1.23925474	      0.59707745	     14.48220185	      0.25276211	    -16.15835674	      0.00000000	      0.00000000	     -5.03197901	     -0.01333117	     -4.83502327	      8.59774959	      0.15005904	     -5.13945756	      0.00000000	      0.00000000	     -8.47890365	     -0.15378581	      4.29887221	     82.22071294	     -7.75741026	     36.29568041	     25.91031275	     86.62098575	      0.00000000	      0.00000000	     84.97409056	    -16.29446076	     47.03914246	     24.89369113	     86.59287352	      0.00000000	      0.00000000
      1.51500000	      7.61143231	     -4.30055237	     -1.16764297	     -0.24579659	      0.99522873	     -1.00081379	     36.74198019	     -1.27239930	      0.52215019	     14.54109257	      0.25378994	    -16.15763893	      0.00000000	      0.00000000	     -5.00689725	     -0.00080484	     -4.84172281	      8.67266395	      0.15136654	     -5.05276607	      0.00000000	      0.00000000	     -8.50547040	     -0.17801149	      4.27454698	     82.24671503	     -7.77830045	     36.44308998	     25.97534579	     86.59030399	      0.00000000	      0.00000000	     84.99573705	    -16.40052424	     47.27605436	     25.04313105	     86.57275118	      0.00000000	      0.00000000
      1.52000000	      7.62466109	     -4.32071586	     -1.14529130	     -0.24590226	      0.99526831	     -1.00086042	     36.73086307	     -1.26462403	      0.50742043	     14.53690952	      0.25371693	    -16.12020111	      0.00000000	      0.00000000	     -5.03023221	     -0.02432091	     -4.77263104	      8.62974909	      0.15061754	     -5.11108479	      0.00000000	      0.00000000	     -8.52435744	     -0.14737203	      4.27592397	     82.27580803	     -7.75114109	     36.37364279	     25.89554032	     86.62498546	      0.00000000	      0.00000000	     85.00218688	    -16.32352840	     47.02846442	     24.92933949	     86.59550257	      0.00000000	      0.00000000
